<svg xmlns="http://www.w3.org/2000/svg" viewBox="0 0 391 421"><path d="M173.999 230.689H4.269c-2.16-.01-3.93 1.73-3.94 3.89v.19c2.04 45.53 20 88.89 50.76 122.52a3.923 3.923 0 0 0 5.55.21c.04-.04.08-.07.12-.11l120.01-120.01a3.917 3.917 0 0 0 0-5.54 3.888 3.888 0 0 0-2.77-1.15m9.723 13.648-120.01 120.01a3.93 3.93 0 0 0-.02 5.55c.04.04.08.08.12.11a194.465 194.465 0 0 0 122.52 50.76c2.16.09 3.99-1.58 4.08-3.74v-169.92c0-2.16-1.76-3.92-3.92-3.92-1.04 0-2.03.41-2.77 1.15m30.175-6.957 120.01 120.01a3.92 3.92 0 0 0 5.55.01c.04-.04.07-.08.11-.11a194.465 194.465 0 0 0 50.76-122.52 3.92 3.92 0 0 0-3.74-4.08h-169.92a3.92 3.92 0 0 0-3.92 3.92c0 1.04.41 2.03 1.15 2.77m-13.648 9.727v169.72c-.01 2.16 1.73 3.93 3.89 3.94h.19c45.52-2.04 88.89-20 122.52-50.76a3.932 3.932 0 0 0 .21-5.55c-.04-.04-.07-.08-.11-.11l-120.01-120.01a3.917 3.917 0 0 0-5.54 0c-.74.73-1.15 1.73-1.15 2.77M198.731 2.53l31.09 54.41a2.74 2.74 0 0 0 3.39 1.19l85.82-34.05c2.01-.8 4.29.18 5.09 2.19.48 1.22.33 2.59-.42 3.67l-32.73 47.44c-.64.93-.4 2.2.53 2.83.35.24.77.37 1.2.36l93.43-1.39c2.25-.05 4.12 1.72 4.17 3.97a4.08 4.08 0 0 1-2.73 3.95l-67.45 26.59a2.034 2.034 0 0 0 0 3.84l67.45 26.59c2.13.74 3.25 3.06 2.51 5.19a4.067 4.067 0 0 1-3.95 2.73l-93.43-1.39c-1.13-.03-2.06.86-2.08 1.99-.01.43.11.85.36 1.2l32.74 47.44a3.918 3.918 0 0 1-4.67 5.87l-85.82-34.06c-1.27-.5-2.72 0-3.39 1.19l-31.09 54.41a3.915 3.915 0 0 1-6.8 0l-31.1-54.41a2.74 2.74 0 0 0-3.39-1.19l-85.82 34.06c-2.01.8-4.29-.18-5.09-2.2-.48-1.22-.33-2.59.42-3.67l32.74-47.44c.64-.93.4-2.2-.53-2.83-.35-.24-.77-.37-1.2-.36l-93.43 1.39a4.077 4.077 0 0 1-4.18-3.97 4.08 4.08 0 0 1 2.73-3.95l67.45-26.59a2.048 2.048 0 0 0 1.26-2.59c-.2-.59-.67-1.05-1.26-1.26L3.101 87.09a4.072 4.072 0 0 1-2.51-5.19 4.067 4.067 0 0 1 3.95-2.73l93.43 1.38c1.13.03 2.06-.86 2.09-1.99.01-.43-.11-.85-.36-1.2l-32.74-47.44a3.918 3.918 0 0 1 4.67-5.87l85.82 34.05c1.27.5 2.72 0 3.39-1.19l31.09-54.41a3.915 3.915 0 0 1 5.35-1.45c.6.37 1.1.87 1.45 1.48" fill="#000" fill-rule="nonzero"/></svg>
