<svg width="401px" height="65px" xmlns="http://www.w3.org/2000/svg">
  <g fill="#000" fill-rule="nonzero">
    <path d="M.33 60.39c0-3.18 4.27-3.77 4.27-8.54V17c0-4.78-4.27-5.36-4.27-8.54 0-1.93 1.34-3.43 5.86-3.43h16.08c4.53 0 5.86 1.51 5.86 3.43 0 3.18-4.27 3.77-4.27 8.54v34.18c0 2.85 1.51 3.43 3.27 3.43h4.27c3.43 0 5.36-.76 7.71-4.44l5.11-7.96c2.1-3.27 5.86-2.34 5.86 1.01v14.83c0 3.77-1.84 5.78-5.36 5.78H6.19C1.67 63.82.33 62.31.33 60.39ZM53.81 61.31c0-3.27 4.02-3.94 4.02-7.29V36.51c0-3.94-4.02-4.19-4.02-7.54 0-2.34 1.93-3.69 6.37-4.53l9.8-1.76c4.27-.76 6.28.33 6.28 4.1V54c0 3.35 3.69 4.02 3.69 7.29 0 1.76-1.09 2.51-3.94 2.51H57.83c-2.84.02-4.02-.73-4.02-2.49Zm2.1-50.68C55.91 5.02 60.77.49 66.63.49s10.72 4.53 10.72 10.14c0 5.7-4.86 10.13-10.72 10.13s-10.72-4.43-10.72-10.13ZM162.46 61.39c0 1.76-1.09 2.43-3.69 2.43h-17.42c-2.43 0-3.6-.75-3.6-2.51 0-3.02 3.43-3.94 3.43-7.29V39.78c0-4.02-1.34-5.03-4.35-5.03-1.69.03-3.36.34-4.94.92v18.34c0 3.35 3.69 4.27 3.69 7.37 0 1.76-1.09 2.43-3.69 2.43h-17.42c-2.43 0-3.6-.75-3.6-2.51 0-3.02 3.43-3.94 3.43-7.29V39.77c0-4.02-1.34-5.03-4.35-5.03-1.48.02-2.95.27-4.36.76v18.51c0 3.35 3.1 4.27 3.1 7.37 0 1.76-1.09 2.43-3.27 2.43H88c-2.85 0-4.02-.75-4.02-2.51 0-3.02 4.02-3.94 4.02-7.29V36.5c0-3.94-4.02-4.19-4.02-7.54 0-2.18 1.67-3.6 4.69-4.19l10.47-2.09c5.28-1.09 6.45.92 6.45 3.85v2.93c3.69-3.77 8.46-7.04 15.08-7.04 5.78 0 9.38 2.6 10.64 7.79 3.77-3.77 8.96-7.79 16.25-7.79 7.45 0 11.22 4.27 11.22 12.98V54c0 3.37 3.68 4.29 3.68 7.39ZM164.33 43.63c0-12.4 9.97-21.19 24.12-21.19s24.12 8.8 24.12 21.19-9.97 21.19-24.12 21.19-24.12-8.79-24.12-21.19Zm28.98 1.85v-3.69c0-8.21-1.59-10.81-4.86-10.81-3.27 0-4.86 2.6-4.86 10.81v3.69c0 8.21 1.59 10.8 4.86 10.8 3.27 0 4.86-2.59 4.86-10.8ZM269.56 61.39c0 1.76-1.09 2.43-3.69 2.43h-18.43c-2.85 0-4.02-.75-4.02-2.51 0-3.02 4.02-3.94 4.02-7.29V38.94c0-4.02-1.34-5.03-4.19-5.03-2.04.06-4.05.49-5.95 1.26v18.84c0 3.35 3.69 4.1 3.69 7.37 0 1.76-1.09 2.43-3.69 2.43h-18.43c-2.85 0-4.02-.75-4.02-2.51 0-3.02 4.02-3.94 4.02-7.29v-17.5c0-3.94-4.02-4.19-4.02-7.54 0-2.34 1.93-3.69 6.37-4.53l9.63-1.76c5.28-.92 6.45.92 6.45 3.85v1.76a27.523 27.523 0 0 1 16.75-5.86c7.96 0 11.81 3.43 11.81 10.47V54c.02 3.37 3.7 4.12 3.7 7.39ZM271.91 53.1c0-8.46 8.21-12.82 23.96-13.74V33.5c0-2.43-1.34-3.1-2.93-3.1-5.7 0-5.03 8.71-13.07 8.71-4.52 0-7.04-2.76-7.04-6.45 0-7.04 9.05-10.22 21.36-10.22 13.91 0 19.68 4.94 19.68 15.83v16.08c0 .42.17.67.5.67.33 0 .59-.25 1.26-.25 1.59 0 2.51 1.17 2.51 3.02 0 4.1-4.36 7.04-10.3 7.04-4.27 0-8.46-1.51-11.06-5.61-2.26 4.02-7.2 5.61-11.81 5.61-7.86 0-13.06-4.69-13.06-11.73Zm23.96 1v-8.71c-3.94 1.34-5.95 3.27-5.95 6.2a2.83 2.83 0 0 0 2.44 3.18c.25.03.5.03.75 0 .96-.01 1.9-.24 2.76-.67ZM323.93 51.76V32.49c0-1-.17-1.09-.67-1.09h-2.09c-4.11 0-5.45-4.61-1.93-6.87l17.59-11.14c2.34-1.51 5.53-.59 5.53 2.1v7.96h7.79c2.68 0 4.44 1.42 4.44 3.6v1.09c0 2.26-1.76 3.69-4.44 3.69h-7.79v17.34c0 2.6 1 3.69 3.35 3.69 2.6 0 4.52-1.34 6.62-1.34 1.67 0 2.51 1.17 2.51 3.27 0 5.45-7.37 10.05-15.5 10.05-9.88-.01-15.41-4.62-15.41-13.08ZM358.03 43.47c0-12.31 9.47-21.03 22.61-21.03 11.65 0 19.68 6.79 19.68 16.33 0 3.94-1.59 5.19-5.44 5.19h-19.77c.84 5.36 4.86 8.54 10.8 8.54 6.28 0 7.79-3.02 10.81-3.02 3.6 0 4.27 3.18 2.26 6.95-2.85 5.36-9.72 8.38-17.84 8.38-13.48.02-23.11-8.86-23.11-21.34ZM384 36.43c.75 0 1.09-.33 1.09-1a4.183 4.183 0 0 0-4.44-4.44c-3.27 0-5.03 2.09-5.44 5.45l8.79-.01Z"/>
  </g>
</svg>
